<?xml version="1.0" encoding="utf-8"?>
<!-- Generator: Adobe Illustrator 16.0.0, SVG Export Plug-In . SVG Version: 6.00 Build 0)  -->
<!DOCTYPE svg PUBLIC "-//W3C//DTD SVG 1.1//EN" "http://www.w3.org/Graphics/SVG/1.1/DTD/svg11.dtd">
<svg version="1.1" id="Layer_1" xmlns="http://www.w3.org/2000/svg" xmlns:xlink="http://www.w3.org/1999/xlink" x="0px" y="0px"
	 width="678px" height="200px" viewBox="-170.857 0 678 200" enable-background="new -170.857 0 678 200" xml:space="preserve">
<g opacity="0.2">
	<g>
		<g>
			<g opacity="0.8">
				<g opacity="0.8">
					<path fill="#FDFDFD" d="M382.003,111.118c-9.006,0.918-18.134,1.296-27.238,1.335c-9.104,0.044-18.187-0.233-27.101-0.381
						c-17.828-0.268-34.983,0.002-50.307,6.029c-3.443,1.193-6.894,2.487-10.364,3.887c1.765,0.216,3.525,0.432,5.282,0.646
						c19.972,2.46,40.827,3.074,61.787,1.93c20.96-1.117,42.025-3.91,62.418-7.559c12.631-2.762,25.366-5.944,38.438-8.454
						c6.535-1.287,13.155-2.405,19.888-3.457c6.735-0.998,13.579-2.012,20.567-3.047c2.565-0.446,3.184-0.553,3.73-0.648
						c-2.77,0.273-5.141,0.257-7.307,0.055c-11.385,0.226-22.742,0.892-34.185,1.777c-11.442,0.869-22.97,1.945-34.693,2.524
						c-3.879,0.062-7.943,1.229-11.621,2.553C387.62,109.607,384.33,111.018,382.003,111.118z"/>
					<path fill="#FCFCFC" d="M472.713,101.479c-0.146-0.012-0.282-0.022-0.422-0.034c-1.149,0.026-2.294,0.054-3.437,0.081
						C470.139,101.51,471.421,101.494,472.713,101.479z"/>
					<path fill="#FDFDFD" d="M416.895,105.434c-7.598,1.018-15.094,1.624-22.547,1.86c-4.875,1.484-9.389,3.686-12.345,3.824
						c-9.006,0.918-18.134,1.296-27.238,1.335c-9.104,0.044-18.187-0.233-27.101-0.381c-17.828-0.268-34.983,0.002-50.307,6.029
						c-3.404,1.185-6.814,2.457-10.251,3.847c1.899,0.232,3.79,0.464,5.678,0.694c13.834,1.663,28.08,2.51,42.489,2.441
						c0.786-0.269,1.583-0.542,2.33-0.798c4.04-1.675,7.923-1.785,11.766-1.563c3.842,0.231,7.644,0.726,11.521,0.521
						c5.514-0.985,10.799-1.74,15.972-2.295c5.173-0.624,10.232-1.048,15.292-1.586c10.119-0.985,20.239-2.262,31.266-4.402
						c3.933-0.746,7.972-2.076,12.191-3.26c4.22-1.177,8.62-2.213,13.274-2.686c3.183-0.445,6.245-0.747,9.233-1.041
						c6.112-1.14,12.298-2.203,18.583-3.151c6.287-0.937,12.67-1.887,19.182-2.856c3.102-0.525,3.527-0.608,3.737-0.621
						c-1.453,0.157-2.776,0.221-4.034,0.23c-10.549,0.514-21.118,0.9-31.903,1.209c-9.362,0.654-18.77,1.491-28.273,2.189
						C415.799,105.147,416.28,105.306,416.895,105.434z"/>
					<path fill="#FCFCFC" d="M415.967,102.258c-1.337-0.037-2.976,1.62-0.557,2.716c9.504-0.698,18.911-1.535,28.273-2.189
						C434.623,103.001,425.415,103.09,415.967,102.258z"/>
					<path fill="#FEFEFE" d="M417.435,94.938c-9.263-1.27-18.321-1.515-26.965-1.644c-8.645-0.146-16.873-0.218-24.477-2.165
						c-7.991-1.835-15.834-4.902-22.722-9.123c-2.554-0.133-5.089-0.287-7.603-0.471c-15.683-0.504-31.353-0.756-47.003-0.995
						c-15.649-0.215-31.28-0.396-46.885-0.763c-31.209-0.621-62.312-2.042-93.257-4.682c-31.053-1.35-59.839,8.099-91.517,14.122
						c-9.424,0.924-17.912,0.186-26.346-0.884c-8.434-1.097-16.814-2.534-26.024-3.233c-22.976-2.192-44.389,2.607-65.915,6.919
						c-10.763,2.193-21.555,4.342-32.584,5.917c-11.03,1.603-22.298,2.617-34.014,3.076c-3.121,0.146-5.578,0.263-7.514,0.354
						c-1.884,0.064-3.181,0.039-3.985-0.022c-1.61,0.021-1.253-0.05,0.299,0.05c9.834,1.562,19.597,2.594,29.305,3.518
						c9.709,0.915,19.364,1.655,28.982,2.364c19.237,1.395,38.329,2.704,57.414,3.971c38.17,2.463,76.314,4.911,115.548,2.903
						c30.42-1.361,59.963-1.549,88.982-0.101c29.019,1.397,57.514,4.403,85.837,7.938c3.471-1.399,6.921-2.693,10.364-3.887
						c15.323-6.027,32.479-6.297,50.307-6.029c8.914,0.147,17.996,0.425,27.101,0.381c9.104-0.039,18.232-0.417,27.238-1.335
						c2.327-0.101,5.617-1.511,9.295-2.81c3.678-1.324,7.742-2.49,11.621-2.553c11.724-0.579,23.251-1.655,34.693-2.524
						c11.442-0.886,22.8-1.552,34.185-1.777c-4.562-0.433-8.279-1.621-12.974-3.129C444.873,96.896,430.945,96.961,417.435,94.938z"
						/>
					<path fill="#FCFCFC" d="M417.435,94.938c13.511,2.023,27.438,1.958,41.389,3.387c-2.302-0.725-4.849-1.536-7.836-2.347
						c-8.497-2.039-17.264-4.139-26.188-5.938c-8.925-1.819-18.007-3.285-27.134-4.383c-9.127-1.119-18.298-1.798-27.401-2.325
						c-9.104-0.447-18.139-0.891-26.992-1.326c6.888,4.221,14.73,7.288,22.722,9.123c7.604,1.947,15.832,2.019,24.477,2.165
						C399.113,93.423,408.172,93.668,417.435,94.938z"/>
					<path fill="#FDFDFD" d="M417.435,94.938c12.896,1.934,26.169,1.948,39.471,3.213c-4.489-0.752-9.022-1.552-13.591-2.195
						c-11.645-1.681-23.342-3.058-34.998-4.529c-11.657-1.498-23.274-3.095-34.76-5.827c12.397,1.37,24.794,2.848,37.204,4.425
						c12.41,1.584,24.834,3.261,37.289,5.21c-8.313-1.985-16.868-3.98-25.561-5.658c-8.692-1.693-17.521-3.076-26.386-4.075
						c-8.863-1.038-17.762-1.663-26.59-2.167c-4.415-0.216-8.812-0.432-13.178-0.646c-4.367-0.18-8.703-0.395-12.996-0.64
						c6.864,4.194,14.691,7.244,22.653,9.078c7.604,1.947,15.832,2.019,24.477,2.165C399.113,93.423,408.172,93.668,417.435,94.938z
						"/>
					<path fill="#FCFCFC" d="M379.757,93.947c13.956,1.555,27.937,2.739,41.987,3.579c14.052,0.865,28.173,1.355,42.409,2.342
						c-1.205-0.339-2.422-0.717-3.711-1.126c-1.179-0.197-2.35-0.393-3.537-0.592c-13.302-1.265-26.574-1.279-39.471-3.213
						c-9.263-1.27-18.321-1.515-26.965-1.644c-8.645-0.146-16.873-0.218-24.477-2.165c-7.962-1.834-15.789-4.883-22.653-9.078
						c-2.398-0.131-4.776-0.277-7.15-0.453c-32.039-1.043-64.008-1.072-95.878-1.825c-13.85,2.66-28.319,3.583-42.957,3.305
						c-14.639-0.312-29.446-1.828-43.973-3.983c13.668,0.125,27.374-0.18,41.129-0.918c-7.596-0.407-15.182-0.786-22.76-1.334
						c-7.579-0.473-15.149-1.083-22.716-1.715c-13.147-0.586-25.899,0.778-38.639,3.015c-2.615,4.608-6.74,8.516-13.846,9.824
						c-11.07,2.007-21.942,1.732-33.232,5.938c-1.552-0.052-1.243-3.445-4.347-3.52c8.675,0.21,15.798-2.212,21.996-6.134
						c-7.691,1.733-15.473,3.443-23.439,4.976c-14.805,1.43-27.321-1.151-40.928-2.909c-1.468,0.204-2.93,0.393-4.402,0.562
						c-7.309,0.865-14.73,2.863-22.188,4.931c3.005-0.017,6.053-0.035,9.241-0.053c-4.868,1.856-11.084,1.821-15.74,1.839
						c2.169-0.596,4.34-1.193,6.499-1.787c-7.222,0.053-14.135,0.17-21.817,0.362c9.311-0.219,18.849-2.021,26.815-4.047
						c-8.59,0.656-16.822,1.526-25.014,2.11c-8.192,0.604-16.346,0.886-24.779,0.754c0.429-0.157,0.862-0.316,1.284-0.471
						c-11.974,2.418-23.923,4.958-36.136,6.842c-12.212,1.909-24.689,3.131-37.715,3.64c-3.124,0.153-5.582,0.273-7.52,0.369
						c-1.886,0.072-3.184,0.06-3.989,0.011c-0.805-0.073-1.118-0.021-1.034-0.037c0.083-0.004,0.562-0.028,1.342,0.136
						c6.867,1.101,13.699,1.895,20.502,2.625c6.803,0.699,13.577,1.338,20.328,1.877c13.502,1.11,26.912,2.034,40.278,2.965
						c26.731,1.824,53.285,3.733,80.042,4.993c-6.017-2.494-12.067-4.789-18.227-6.878c-2.663-0.557-5.224-1.313-7.625-2.434
						c2.562,0.762,5.102,1.581,7.625,2.434c7.219,1.533,15.219,1.415,23.007,3.483c1.453,1.132,6.113,1.524,7.971-1.521
						c5.331,1.429,11.182,1.587,17.031,1.73c5.85,0.129,11.697,0.25,17.02,1.777c0.636,0.049,1.706,1.085,2.95,2.322
						c6.759-0.099,13.535-0.306,20.34-0.67c19.019-0.854,37.691-1.245,56.107-1.065c18.416,0.167,36.574,0.986,54.564,2.295
						c-8.652-2.315-17.024-4.991-24.742-8.458c-10.451-5.62-32.716-0.508-51.558,0.868c-4.761,0.949-7.547-2.917-12.214-3.179
						c8.237-5.077,17.659-5.876,27.377-5.506c9.718,0.357,19.732,1.854,29.154,1.104c12.528-0.58,27.561,1.521,42.851,2.79
						c15.291,1.293,30.84,1.653,44.401-1.802c11.193-2.939,21.742,1.181,30.748,4.807c-3.316,2.098-9.523,1.907-12.639,1.792
						c-27.94-0.989-55.893-2.432-84.053-1.386c14.596,2.646,28.959,3.349,43.308,4.095s28.685,1.609,43.225,4.183
						c-8.589,0.41-17.049-0.679-25.368-1.254c-8.319-0.562-16.498-0.602-24.522,2.156c1.33,0.908,2.709,1.708,4.106,2.456
						c5.633,0.618,11.254,1.234,16.866,1.851c5.611,0.673,11.213,1.345,16.809,2.016c3.437-1.39,6.847-2.662,10.251-3.847
						c15.323-6.027,32.479-6.297,50.307-6.029c8.914,0.147,17.996,0.425,27.101,0.381c9.104-0.039,18.232-0.417,27.238-1.335
						c2.956-0.139,7.47-2.34,12.345-3.824c-11.629,0.414-23.16-0.104-34.832,0.261c4.665,0.67,9.14,1.648,13.284,3.103
						c-5.491,0.561-10.461,0.045-15.429-0.543c-4.967-0.602-9.933-1.292-15.417-0.863c5.911-1.058,11.749-1.502,17.562-1.696
						c-6.998-1.029-14.41-1.379-21.803-2.116c7.166-1.695,14.021-0.562,20.9,0.157c6.88,0.763,13.783,1.065,21.047-1.089
						c-3.048,0.099-6.11,0.07-9.137-0.172c3.099,0.041,6.217,0.083,9.32,0.124c-0.056,0.015-0.128,0.033-0.184,0.048
						c9.35-0.34,18.671-1.854,27.104-2.976c-8.058,0.077-15.713-0.555-23.327-1.365c-7.614-0.791-15.187-1.746-23.081-1.8
						c-2.614,0.067-5.231,0.162-7.829,0.3c2.648-0.235,5.253-0.313,7.829-0.3c18.096-0.428,36.199,0.739,54.289,1.686
						c18.09,0.989,36.167,1.673,54.209,1.474c1.143-0.027,2.287-0.055,3.437-0.081c-1.024-0.089-2.039-0.218-2.99-0.381
						C439.372,100.218,409.011,98.261,379.757,93.947z"/>
				</g>
			</g>
		</g>
	</g>
</g>
</svg>
